<svg width="19" height="20" viewBox="0 0 19 20" fill="none" xmlns="http://www.w3.org/2000/svg">
<mask id="mask0_1_699" style="mask-type:alpha" maskUnits="userSpaceOnUse" x="0" y="0" width="19" height="20">
<rect y="0.5" width="19" height="19" fill="#D9D9D9"/>
</mask>
<g mask="url(#mask0_1_699)">
<path d="M8.70833 18.6687V17.0854C7.05903 16.9007 5.64392 16.2179 4.46302 15.037C3.28212 13.8561 2.5993 12.441 2.41458 10.7917H0.831249V9.20832H2.41458C2.5993 7.55902 3.28212 6.14391 4.46302 4.96301C5.64392 3.78211 7.05903 3.09929 8.70833 2.91457V1.33124H10.2917V2.91457C11.941 3.09929 13.3561 3.78211 14.537 4.96301C15.7179 6.14391 16.4007 7.55902 16.5854 9.20832H18.1687V10.7917H16.5854C16.4007 12.441 15.7179 13.8561 14.537 15.037C13.3561 16.2179 11.941 16.9007 10.2917 17.0854V18.6687H8.70833ZM9.5 15.5417C11.0306 15.5417 12.3368 15.0007 13.4187 13.9187C14.5007 12.8368 15.0417 11.5305 15.0417 9.99999C15.0417 8.46943 14.5007 7.16318 13.4187 6.08124C12.3368 4.99929 11.0306 4.45832 9.5 4.45832C7.96944 4.45832 6.66319 4.99929 5.58125 6.08124C4.4993 7.16318 3.95833 8.46943 3.95833 9.99999C3.95833 11.5305 4.4993 12.8368 5.58125 13.9187C6.66319 15.0007 7.96944 15.5417 9.5 15.5417ZM9.5 13.1667C8.62917 13.1667 7.88368 12.8566 7.26354 12.2364C6.6434 11.6163 6.33333 10.8708 6.33333 9.99999C6.33333 9.12915 6.6434 8.38367 7.26354 7.76353C7.88368 7.14339 8.62917 6.83332 9.5 6.83332C10.3708 6.83332 11.1163 7.14339 11.7365 7.76353C12.3566 8.38367 12.6667 9.12915 12.6667 9.99999C12.6667 10.8708 12.3566 11.6163 11.7365 12.2364C11.1163 12.8566 10.3708 13.1667 9.5 13.1667ZM9.5 11.5833C9.93542 11.5833 10.3082 11.4283 10.6182 11.1182C10.9283 10.8081 11.0833 10.4354 11.0833 9.99999C11.0833 9.56457 10.9283 9.19183 10.6182 8.88176C10.3082 8.57169 9.93542 8.41665 9.5 8.41665C9.06458 8.41665 8.69184 8.57169 8.38177 8.88176C8.0717 9.19183 7.91667 9.56457 7.91667 9.99999C7.91667 10.4354 8.0717 10.8081 8.38177 11.1182C8.69184 11.4283 9.06458 11.5833 9.5 11.5833Z" fill="#1C1B1F"/>
</g>
</svg>
