<svg width="19" height="20" viewBox="0 0 19 20" fill="none" xmlns="http://www.w3.org/2000/svg">
<mask id="mask0_1_693" style="mask-type:alpha" maskUnits="userSpaceOnUse" x="0" y="0" width="19" height="20">
<rect y="0.5" width="19" height="19" fill="#D9D9D9"/>
</mask>
<g mask="url(#mask0_1_693)">
<path d="M15.5167 17.125L10.5292 12.1375C10.1333 12.4542 9.67812 12.7049 9.16354 12.8896C8.64896 13.0743 8.10139 13.1667 7.52083 13.1667C6.08264 13.1667 4.86545 12.6686 3.86927 11.6724C2.87309 10.6762 2.375 9.45903 2.375 8.02083C2.375 6.58264 2.87309 5.36545 3.86927 4.36927C4.86545 3.37309 6.08264 2.875 7.52083 2.875C8.95903 2.875 10.1762 3.37309 11.1724 4.36927C12.1686 5.36545 12.6667 6.58264 12.6667 8.02083C12.6667 8.60139 12.5743 9.14896 12.3896 9.66354C12.2049 10.1781 11.9542 10.6333 11.6375 11.0292L16.625 16.0167L15.5167 17.125ZM7.52083 11.5833C8.51042 11.5833 9.35156 11.237 10.0443 10.5443C10.737 9.85156 11.0833 9.01042 11.0833 8.02083C11.0833 7.03125 10.737 6.1901 10.0443 5.4974C9.35156 4.80469 8.51042 4.45833 7.52083 4.45833C6.53125 4.45833 5.6901 4.80469 4.9974 5.4974C4.30469 6.1901 3.95833 7.03125 3.95833 8.02083C3.95833 9.01042 4.30469 9.85156 4.9974 10.5443C5.6901 11.237 6.53125 11.5833 7.52083 11.5833Z" fill="#1C1B1F"/>
</g>
</svg>
