<svg width="25" height="25" viewBox="0 0 25 25" fill="none" xmlns="http://www.w3.org/2000/svg">
<mask id="mask0_1_716" style="mask-type:alpha" maskUnits="userSpaceOnUse" x="0" y="0" width="25" height="25">
<rect x="0.5" y="0.5" width="24" height="24" fill="#D9D9D9"/>
</mask>
<g mask="url(#mask0_1_716)">
<path d="M1.5 20.5V17.7C1.5 17.1333 1.64583 16.6125 1.9375 16.1375C2.22917 15.6625 2.61667 15.3 3.1 15.05C4.13333 14.5333 5.18333 14.1458 6.25 13.8875C7.31667 13.6292 8.4 13.5 9.5 13.5C10.6 13.5 11.6833 13.6292 12.75 13.8875C13.8167 14.1458 14.8667 14.5333 15.9 15.05C16.3833 15.3 16.7708 15.6625 17.0625 16.1375C17.3542 16.6125 17.5 17.1333 17.5 17.7V20.5H1.5ZM19.5 20.5V17.5C19.5 16.7667 19.2958 16.0625 18.8875 15.3875C18.4792 14.7125 17.9 14.1333 17.15 13.65C18 13.75 18.8 13.9208 19.55 14.1625C20.3 14.4042 21 14.7 21.65 15.05C22.25 15.3833 22.7083 15.7542 23.025 16.1625C23.3417 16.5708 23.5 17.0167 23.5 17.5V20.5H19.5ZM9.5 12.5C8.4 12.5 7.45833 12.1083 6.675 11.325C5.89167 10.5417 5.5 9.6 5.5 8.5C5.5 7.4 5.89167 6.45833 6.675 5.675C7.45833 4.89167 8.4 4.5 9.5 4.5C10.6 4.5 11.5417 4.89167 12.325 5.675C13.1083 6.45833 13.5 7.4 13.5 8.5C13.5 9.6 13.1083 10.5417 12.325 11.325C11.5417 12.1083 10.6 12.5 9.5 12.5ZM19.5 8.5C19.5 9.6 19.1083 10.5417 18.325 11.325C17.5417 12.1083 16.6 12.5 15.5 12.5C15.3167 12.5 15.0833 12.4792 14.8 12.4375C14.5167 12.3958 14.2833 12.35 14.1 12.3C14.55 11.7667 14.8958 11.175 15.1375 10.525C15.3792 9.875 15.5 9.2 15.5 8.5C15.5 7.8 15.3792 7.125 15.1375 6.475C14.8958 5.825 14.55 5.23333 14.1 4.7C14.3333 4.61667 14.5667 4.5625 14.8 4.5375C15.0333 4.5125 15.2667 4.5 15.5 4.5C16.6 4.5 17.5417 4.89167 18.325 5.675C19.1083 6.45833 19.5 7.4 19.5 8.5ZM3.5 18.5H15.5V17.7C15.5 17.5167 15.4542 17.35 15.3625 17.2C15.2708 17.05 15.15 16.9333 15 16.85C14.1 16.4 13.1917 16.0625 12.275 15.8375C11.3583 15.6125 10.4333 15.5 9.5 15.5C8.56667 15.5 7.64167 15.6125 6.725 15.8375C5.80833 16.0625 4.9 16.4 4 16.85C3.85 16.9333 3.72917 17.05 3.6375 17.2C3.54583 17.35 3.5 17.5167 3.5 17.7V18.5ZM9.5 10.5C10.05 10.5 10.5208 10.3042 10.9125 9.9125C11.3042 9.52083 11.5 9.05 11.5 8.5C11.5 7.95 11.3042 7.47917 10.9125 7.0875C10.5208 6.69583 10.05 6.5 9.5 6.5C8.95 6.5 8.47917 6.69583 8.0875 7.0875C7.69583 7.47917 7.5 7.95 7.5 8.5C7.5 9.05 7.69583 9.52083 8.0875 9.9125C8.47917 10.3042 8.95 10.5 9.5 10.5Z" fill="#DE3163"/>
</g>
</svg>
