<svg width="25" height="25" viewBox="0 0 25 25" fill="none" xmlns="http://www.w3.org/2000/svg">
<mask id="mask0_1_704" style="mask-type:alpha" maskUnits="userSpaceOnUse" x="0" y="0" width="25" height="25">
<rect x="0.5" y="0.5" width="24" height="24" fill="#D9D9D9"/>
</mask>
<g mask="url(#mask0_1_704)">
<path d="M5.5 21.5C4.95 21.5 4.47917 21.3042 4.0875 20.9125C3.69583 20.5208 3.5 20.05 3.5 19.5V5.5C3.5 4.95 3.69583 4.47917 4.0875 4.0875C4.47917 3.69583 4.95 3.5 5.5 3.5H19.5C20.05 3.5 20.5208 3.69583 20.9125 4.0875C21.3042 4.47917 21.5 4.95 21.5 5.5V19.5C21.5 20.05 21.3042 20.5208 20.9125 20.9125C20.5208 21.3042 20.05 21.5 19.5 21.5H5.5ZM5.5 19.5H19.5V5.5H5.5V19.5ZM6.5 17.5H18.5L14.75 12.5L11.75 16.5L9.5 13.5L6.5 17.5ZM9 10.5C9.41667 10.5 9.77083 10.3542 10.0625 10.0625C10.3542 9.77083 10.5 9.41667 10.5 9C10.5 8.58333 10.3542 8.22917 10.0625 7.9375C9.77083 7.64583 9.41667 7.5 9 7.5C8.58333 7.5 8.22917 7.64583 7.9375 7.9375C7.64583 8.22917 7.5 8.58333 7.5 9C7.5 9.41667 7.64583 9.77083 7.9375 10.0625C8.22917 10.3542 8.58333 10.5 9 10.5Z" fill="#DE3163"/>
</g>
</svg>
