<svg width="21" height="17" viewBox="0 0 21 17" fill="none" xmlns="http://www.w3.org/2000/svg">
<path d="M14.25 16.5H2.5C1.95 16.5 1.47917 16.3042 1.0875 15.9125C0.695833 15.5208 0.5 15.05 0.5 14.5V2.5C0.5 1.95 0.695833 1.47917 1.0875 1.0875C1.47917 0.695833 1.95 0.5 2.5 0.5H18.5C19.05 0.5 19.5208 0.695833 19.9125 1.0875C20.3042 1.47917 20.5 1.95 20.5 2.5V14.5C20.5 15.05 20.3042 15.5208 19.9125 15.9125C19.5208 16.3042 19.05 16.5 18.5 16.5H17.1L12.4 11.8C12.05 12.0333 11.6708 12.2083 11.2625 12.325C10.8542 12.4417 10.4333 12.5 10 12.5C8.75 12.5 7.6875 12.0625 6.8125 11.1875C5.9375 10.3125 5.5 9.25 5.5 8C5.5 6.75 5.9375 5.6875 6.8125 4.8125C7.6875 3.9375 8.75 3.5 10 3.5C11.25 3.5 12.3125 3.9375 13.1875 4.8125C14.0625 5.6875 14.5 6.75 14.5 8C14.5 8.45 14.4417 8.875 14.325 9.275C14.2083 9.675 14.0333 10.05 13.8 10.4L17.9 14.5H18.5V2.5H2.5V14.5H12.25L14.25 16.5ZM10 10.5C10.7 10.5 11.2917 10.2583 11.775 9.775C12.2583 9.29167 12.5 8.7 12.5 8C12.5 7.3 12.2583 6.70833 11.775 6.225C11.2917 5.74167 10.7 5.5 10 5.5C9.3 5.5 8.70833 5.74167 8.225 6.225C7.74167 6.70833 7.5 7.3 7.5 8C7.5 8.7 7.74167 9.29167 8.225 9.775C8.70833 10.2583 9.3 10.5 10 10.5Z" fill="#DE3163"/>
</svg>
