<svg width="25" height="24" viewBox="0 0 25 24" fill="none" xmlns="http://www.w3.org/2000/svg">
<mask id="mask0_1_683" style="mask-type:alpha" maskUnits="userSpaceOnUse" x="0" y="0" width="25" height="24">
<rect x="0.5" width="24" height="24" fill="#D9D9D9"/>
</mask>
<g mask="url(#mask0_1_683)">
<path d="M14.5 7V5H22.5V7H14.5ZM14.5 11V9H22.5V11H14.5ZM14.5 15V13H22.5V15H14.5ZM8.5 14C7.66667 14 6.95833 13.7083 6.375 13.125C5.79167 12.5417 5.5 11.8333 5.5 11C5.5 10.1667 5.79167 9.45833 6.375 8.875C6.95833 8.29167 7.66667 8 8.5 8C9.33333 8 10.0417 8.29167 10.625 8.875C11.2083 9.45833 11.5 10.1667 11.5 11C11.5 11.8333 11.2083 12.5417 10.625 13.125C10.0417 13.7083 9.33333 14 8.5 14ZM2.5 20V18.1C2.5 17.75 2.58333 17.4167 2.75 17.1C2.91667 16.7833 3.15 16.5333 3.45 16.35C4.2 15.9 4.99583 15.5625 5.8375 15.3375C6.67917 15.1125 7.56667 15 8.5 15C9.43333 15 10.3208 15.1125 11.1625 15.3375C12.0042 15.5625 12.8 15.9 13.55 16.35C13.85 16.5333 14.0833 16.7833 14.25 17.1C14.4167 17.4167 14.5 17.75 14.5 18.1V20H2.5ZM4.65 18H12.35C11.7667 17.6667 11.15 17.4167 10.5 17.25C9.85 17.0833 9.18333 17 8.5 17C7.81667 17 7.15 17.0833 6.5 17.25C5.85 17.4167 5.23333 17.6667 4.65 18ZM8.5 12C8.78333 12 9.02083 11.9042 9.2125 11.7125C9.40417 11.5208 9.5 11.2833 9.5 11C9.5 10.7167 9.40417 10.4792 9.2125 10.2875C9.02083 10.0958 8.78333 10 8.5 10C8.21667 10 7.97917 10.0958 7.7875 10.2875C7.59583 10.4792 7.5 10.7167 7.5 11C7.5 11.2833 7.59583 11.5208 7.7875 11.7125C7.97917 11.9042 8.21667 12 8.5 12Z" fill="#DE3163"/>
</g>
</svg>
